<svg width="110" height="84" viewBox="0 0 110 84" fill="none" xmlns="http://www.w3.org/2000/svg">
<rect width="110" height="83.5833" rx="2" fill="#EEEEEE"/>
<path d="M62 32H48C47.2044 32 46.4413 32.3161 45.8787 32.8787C45.3161 33.4413 45 34.2044 45 35V49C45 49.7956 45.3161 50.5587 45.8787 51.1213C46.4413 51.6839 47.2044 52 48 52H62C62.1645 51.9977 62.3284 51.981 62.49 51.95L62.79 51.88H62.86H62.91L63.28 51.74L63.41 51.67C63.51 51.61 63.62 51.56 63.72 51.49C63.8535 51.3918 63.9805 51.2849 64.1 51.17L64.17 51.08C64.2682 50.9805 64.3585 50.8735 64.44 50.76L64.53 50.63C64.5998 50.5187 64.6601 50.4016 64.71 50.28C64.7374 50.232 64.7609 50.1818 64.78 50.13C64.83 50.01 64.86 49.88 64.9 49.75V49.6C64.9567 49.4046 64.9903 49.2032 65 49V35C65 34.2044 64.6839 33.4413 64.1213 32.8787C63.5587 32.3161 62.7956 32 62 32ZM48 50C47.7348 50 47.4804 49.8946 47.2929 49.7071C47.1054 49.5196 47 49.2652 47 49V44.69L50.29 41.39C50.383 41.2963 50.4936 41.2219 50.6154 41.1711C50.7373 41.1203 50.868 41.0942 51 41.0942C51.132 41.0942 51.2627 41.1203 51.3846 41.1711C51.5064 41.2219 51.617 41.2963 51.71 41.39L60.31 50H48ZM63 49C62.9991 49.1233 62.9753 49.2453 62.93 49.36C62.9071 49.4087 62.8804 49.4556 62.85 49.5C62.8232 49.5423 62.7931 49.5825 62.76 49.62L57.41 44.27L58.29 43.39C58.383 43.2963 58.4936 43.2219 58.6154 43.1711C58.7373 43.1203 58.868 43.0942 59 43.0942C59.132 43.0942 59.2627 43.1203 59.3846 43.1711C59.5064 43.2219 59.617 43.2963 59.71 43.39L63 46.69V49ZM63 43.86L61.12 42C60.5477 41.457 59.7889 41.1543 59 41.1543C58.2111 41.1543 57.4523 41.457 56.88 42L56 42.88L53.12 40C52.5477 39.457 51.7889 39.1543 51 39.1543C50.2111 39.1543 49.4523 39.457 48.88 40L47 41.86V35C47 34.7348 47.1054 34.4804 47.2929 34.2929C47.4804 34.1054 47.7348 34 48 34H62C62.2652 34 62.5196 34.1054 62.7071 34.2929C62.8946 34.4804 63 34.7348 63 35V43.86ZM56.5 36C56.2033 36 55.9133 36.088 55.6666 36.2528C55.42 36.4176 55.2277 36.6519 55.1142 36.926C55.0006 37.2001 54.9709 37.5017 55.0288 37.7926C55.0867 38.0836 55.2296 38.3509 55.4393 38.5607C55.6491 38.7704 55.9164 38.9133 56.2074 38.9712C56.4983 39.0291 56.7999 38.9994 57.074 38.8858C57.3481 38.7723 57.5824 38.58 57.7472 38.3334C57.912 38.0867 58 37.7967 58 37.5C58 37.1022 57.842 36.7206 57.5607 36.4393C57.2794 36.158 56.8978 36 56.5 36Z" fill="#1B1B1B"/>
</svg>
